<svg xmlns="http://www.w3.org/2000/svg" viewBox="0 0 879.22 409.03"><defs><style>.cls-1,.cls-5{fill:#333;}.cls-2{fill:#666;stroke-width:1.27px;}.cls-2,.cls-3{stroke:#333;}.cls-10,.cls-11,.cls-12,.cls-13,.cls-14,.cls-2,.cls-3,.cls-4,.cls-5,.cls-6,.cls-7,.cls-8,.cls-9{stroke-miterlimit:10;}.cls-3{fill:#b3b3b3;stroke-width:2px;}.cls-10,.cls-4{fill:#0eaa00;}.cls-10,.cls-4,.cls-5,.cls-6,.cls-7,.cls-8{stroke:#000;}.cls-14,.cls-4{stroke-width:14px;}.cls-5,.cls-6{stroke-width:8px;}.cls-10,.cls-11,.cls-12,.cls-13,.cls-14,.cls-6,.cls-7,.cls-8{stroke-linecap:round;}.cls-7,.cls-8,.cls-9{fill:#4d4d4d;}.cls-7{stroke-width:6.57px;}.cls-8{stroke-width:7px;}.cls-11,.cls-12,.cls-13,.cls-14,.cls-9{stroke:#4d4d4d;}.cls-9{stroke-width:5px;}.cls-10{stroke-width:10px;}.cls-11,.cls-12,.cls-13,.cls-14{fill:none;opacity:0.5;}.cls-11{stroke-width:13.25px;}.cls-12{stroke-width:13.02px;}.cls-13{stroke-width:13.01px;}</style></defs><title>Pinto_green</title><g id="Layer_2" data-name="Layer 2"><g id="Wheels"><g id="Wheel"><path class="cls-1" d="M270.07,382.48c-42-1.67-82.11-1.67-120,0-4.88-15.69-4.45-28.66-.21-41.82l119.85-.22C276.88,339.83,277.33,383.28,270.07,382.48Z"/><path class="cls-2" d="M151.48,382.48q57.22-2.22,118.4,0a.13.13,0,0,1,.11.18c-2.55,4.89-23.94,7.07-56.34,7.66-32.2-.06-55.23-1.92-62.46-6.87A.54.54,0,0,1,151.48,382.48Z"/><ellipse class="cls-3" cx="211.72" cy="386.16" rx="33.59" ry="2.29"/></g><g id="Wheel-2" data-name="Wheel"><path class="cls-1" d="M270.6,29c-42,1.67-82.11,1.67-120,0-4.88,15.69-4.45,28.67-.21,41.83l119.85.22C277.41,71.67,277.86,28.22,270.6,29Z"/><path class="cls-2" d="M152,29c38.15,1.49,77.68,1.42,118.4,0a.13.13,0,0,0,.11-.18C268,24,246.58,21.78,214.18,21.18c-32.2.06-55.23,1.92-62.46,6.87A.54.54,0,0,0,152,29Z"/><ellipse class="cls-3" cx="212.25" cy="25.34" rx="33.59" ry="2.29"/></g><g id="Wheel-3" data-name="Wheel"><path class="cls-1" d="M741.25,384c-42-1.67-82.12-1.67-120,0-4.88-15.69-4.45-28.67-.21-41.83l119.85-.22C748.06,341.33,748.51,384.78,741.25,384Z"/><path class="cls-2" d="M622.66,384c38.15-1.49,77.67-1.42,118.4,0a.13.13,0,0,1,.11.18c-2.55,4.88-23.94,7.06-56.34,7.66-32.2-.06-55.23-1.92-62.46-6.87A.54.54,0,0,1,622.66,384Z"/><ellipse class="cls-3" cx="682.9" cy="387.66" rx="33.59" ry="2.29"/></g><g id="Wheel-4" data-name="Wheel"><path class="cls-1" d="M747.62,26.72c-42,1.67-82.12,1.67-120.06,0-4.87,15.69-4.44,28.66-.21,41.82l119.85.22C754.42,69.37,754.87,25.92,747.62,26.72Z"/><path class="cls-2" d="M629,26.72q57.22,2.22,118.4,0a.13.13,0,0,0,.11-.18c-2.54-4.89-23.94-7.07-56.34-7.66-32.2.06-55.22,1.92-62.46,6.87A.54.54,0,0,0,629,26.72Z"/><ellipse class="cls-3" cx="689.26" cy="23.04" rx="33.59" ry="2.29"/></g></g><g id="Body"><path id="Main_Body_Outline" data-name="Main Body Outline" class="cls-4" d="M21,336.46a14.76,14.76,0,0,0,11.79,14.46L106,364.13l36,6.19a344.21,344.21,0,0,0,56.42,5l365.58,2,137.68.74a349.13,349.13,0,0,0,56.3-4.27l51.75-8.17a45.35,45.35,0,0,0,38-39.91l9-82.81a353.77,353.77,0,0,0-.37-79.34L846.76,82A42.47,42.47,0,0,0,811.2,45L757,36.42a349.13,349.13,0,0,0-56.3-4.27L563,32.89l-365.58,2a344.21,344.21,0,0,0-56.42,5L105,46,31.79,59.21A14.76,14.76,0,0,0,20,72.62c-.05.7-.07,1.39-.13,2.08C12,159.16,13.17,246.7,21,336.46Z"/><g id="Windows"><path class="cls-5" d="M180.8,112.6,69.68,88.1a4.83,4.83,0,0,0-5.81,4c-11.51,74.66-11.25,150.17,0,226.46a4.83,4.83,0,0,0,5.84,4L180.4,297.39a9.19,9.19,0,0,0,7.14-9.51c-3.3-58.15-3.69-113.8.46-165.59A9.2,9.2,0,0,0,180.8,112.6Z"/><path class="cls-5" d="M561.76,65.35,486.22,93a13.79,13.79,0,0,0-8.81,15.31c10.65,62.21,9.84,126.14-.83,191.54A13.76,13.76,0,0,0,485.34,315l75.41,28.15a8.53,8.53,0,0,0,11.19-5.65c25.89-90.39,29-179.48.87-266.76A8.53,8.53,0,0,0,561.76,65.35Z"/><path class="cls-5" d="M547.53,55.25,470.71,82.39A115.84,115.84,0,0,1,432.16,89h-165a67.11,67.11,0,0,1-15.78-1.89c-30-7.28-52.75-15.21-62.75-24.25a3.56,3.56,0,0,1,2.26-6.18c69.2-3,212.89-3,356.42-3A.81.81,0,0,1,547.53,55.25Z"/><polygon class="cls-6" points="332.38 87.25 319.5 87.25 306 55.75 319.5 55.63 332.38 87.25"/><path class="cls-5" d="M549.53,353.82l-76.82-27.14a115.59,115.59,0,0,0-38.55-6.61h-165A66.59,66.59,0,0,0,253.33,322c-30,7.28-52.75,15.2-62.75,24.24a3.57,3.57,0,0,0,2.26,6.19c69.2,3,212.89,3,356.42,3A.81.81,0,0,0,549.53,353.82Z"/><polygon class="cls-6" points="334.38 321.82 321.5 321.82 308 353.32 321.5 353.44 334.38 321.82"/></g><g id="Layer_8" data-name="Layer 8"><path class="cls-7" d="M31.74,351.82c8.48,2.08,19.72,4.72,27,5.92a1.81,1.81,0,0,1,1.35,2.1l0,2a1.7,1.7,0,0,1-1.86,1.55c-18-2.76-34.4-5.37-43.5-7.28-2.87-.61-6.31-3.48-7.1-6.67-5-20.21-6.35-272.12-.29-292.39a10.65,10.65,0,0,1,7.48-6.6c9.19-1.52,25.71-3.4,43.86-5.36a1.68,1.68,0,0,1,1.76,1.63l-.5,2a1.83,1.83,0,0,1-1.47,2c-7.48.9-19.4,3.51-28.27,5.59C23.58,57.86,20,64.78,19.84,72.42,15,162.84,15.18,251.27,21.9,335.55,22.26,343.85,25.18,350.2,31.74,351.82Z"/></g><path class="cls-8" d="M860.62,220.53C858,267.79,853,316.19,843.84,356.44a8.58,8.58,0,0,1-5.94,6.35C830.6,365,820,365.88,808,366.31c-1.15,0-2,2.38-2,3.53l0,.75a1.15,1.15,0,0,0,1.07,1.2,141.32,141.32,0,0,0,35.44-3.55,16.08,16.08,0,0,0,9.62-6.24c12.52-17.41,18.36-69.22,22.38-122.81a425.23,425.23,0,0,0-.81-73c-4-40.63-11.46-102.73-21.4-116.56a16,16,0,0,0-9.55-6.23,142,142,0,0,0-35.52-3.57,1.11,1.11,0,0,0-1.06,1.07l0,2a2.09,2.09,0,0,0,2,2.16c12,.42,22.64,1.34,29.94,3.52A8.58,8.58,0,0,1,844,54.93c7.72,34,13.72,101.48,16.19,132.5A245.4,245.4,0,0,1,860.62,220.53Z"/><rect class="cls-9" x="616.7" y="149" width="22.67" height="44.67" rx="3.37" ry="3.37" transform="translate(1256.07 342.67) rotate(-180)"/><path class="cls-10" d="M567.67,49.33,537.85,10.61A14.9,14.9,0,0,0,526,5H512.48a1.43,1.43,0,0,0-1.35,2.13L528,33.76a5.49,5.49,0,0,0,4.66,2.45h6.42a5.93,5.93,0,0,1,4.56,2.07l9.17,11"/><path class="cls-10" d="M569.89,359.7l-29.81,38.72A14.91,14.91,0,0,1,528.25,404H514.7a1.41,1.41,0,0,1-1.34-2.12l16.88-26.63a5.5,5.5,0,0,1,4.67-2.46h6.42a5.93,5.93,0,0,0,4.55-2.07l9.17-11.05"/><rect class="cls-9" x="616.7" y="215" width="22.67" height="44.67" rx="3.37" ry="3.37" transform="translate(1256.07 474.67) rotate(-180)"/><g id="Accents"><line class="cls-11" x1="829.83" y1="97" x2="598.68" y2="99"/><path class="cls-12" d="M651.65,122c10.38,64.2,11.79,98.91,1.5,162"/><line class="cls-11" x1="832.82" y1="307.67" x2="597.48" y2="304.67"/><path class="cls-13" d="M57.68,340c58.75-11.25,110.74-20.87,139.15-31.58,7.46-2.81,12.49-10.89,12.46-20l-.5-165.51c0-8.18-4.19-15.6-10.67-18.86C172.85,91.34,135,81.8,56.82,69.33"/><path class="cls-14" d="M454,114c-53.23,4.38-128.91,3.72-214,0"/><path class="cls-14" d="M453.67,294.38c-57.61-4.75-132.68-3.56-214,0"/></g></g></g></svg>